# xmcd
#
# Track frame offsets: 
#        150
#        16523
#        26277
#        45476
#        57488
#        70690
#        94591
#        103132
#        122095
#        135481
#        153352
#        166385
#
# Disc length: 2467 seconds
#
# Revision: 0
# Processed by: cddbd v1.5.1PL2 Copyright (c) Steve Scherf et al.
# Submitted via: ExactAudioCopy v0.95b3
#
DISCID=8c09a10c
DTITLE=The Griswolds - Cockeyed World
DYEAR=2000
DGENRE=Blues
TTITLE0=Sad Sad Day
TTITLE1=Oopah Pah Doo
TTITLE2=Funny How Time Slips Away
TTITLE3=Don't You Want a Good Man Around
TTITLE4=Never Make a Move too Soon
TTITLE5=Leaving in the Morning
TTITLE6=Boogie in the Dark
TTITLE7=Drink Muddy Water
TTITLE8=Call My Job
TTITLE9=That's All Right
TTITLE10=Big Ol' Butt
TTITLE11=Please Don't Blow My Mind
EXTD=
EXTT0=
EXTT1=
EXTT2=
EXTT3=
EXTT4=
EXTT5=
EXTT6=
EXTT7=
EXTT8=
EXTT9=
EXTT10=
EXTT11=
PLAYORDER=
